# xmcd
#
# Track frame offsets: 
#        150
#        21187
#        33778
#        41902
#        77222
#        90250
#        109657
#        124767
#        140701
#        159558
#        186121
#        222632
#        240664
#        262223
#        266333
#        279782
#        287350
#        293266
#        307579
#        313515
#
# Disc length: 4398 seconds
#
# Revision: 1
# Processed by: cddbd v1.5.2PL0 Copyright (c) Steve Scherf et al.
# Submitted via: ExactAudioCopy v0.95b4
#
DISCID=10112c14
DTITLE=Tom Waits - Tales From The Underground 3
DYEAR=1997
DGENRE=Blues
TTITLE0=Little Drop Of Poison
TTITLE1=What Else Is New
TTITLE2=(Slam On) Little Sheep
TTITLE3=Jersey Girl
TTITLE4=Suitcase I
TTITLE5=Paradise Alley
TTITLE6=Annie's Back In Town
TTITLE7=Suitcase II
TTITLE8=Strange Weather
TTITLE9=Standing On The Corner
TTITLE10=Movie
TTITLE11=No One Can Forgive Me But My Baby
TTITLE12=Playin' Hooky
TTITLE13=A Nickel's Worth Of Dream
TTITLE14=Mr. Henry (Early Version)
TTITLE15=Smugglers Waltz
TTITLE16=Once More Before I Go
TTITLE17=Straydog Help Yourself
TTITLE18=Candy Mountain
TTITLE19=Rainbow Sleeves
EXTD=
EXTT0=
EXTT1=
EXTT2=
EXTT3=
EXTT4=
EXTT5=
EXTT6=
EXTT7=
EXTT8=
EXTT9=
EXTT10=
EXTT11=
EXTT12=
EXTT13=
EXTT14=
EXTT15=
EXTT16=
EXTT17=
EXTT18=
EXTT19=
PLAYORDER=
